<?xml version="1.0" encoding="utf-8"?>
<!-- Generator: Adobe Illustrator 21.0.2, SVG Export Plug-In . SVG Version: 6.00 Build 0)  -->
<svg version="1.1" id="Calque_1" xmlns="http://www.w3.org/2000/svg" xmlns:xlink="http://www.w3.org/1999/xlink" x="0px" y="0px"
	 viewBox="0 0 382.8 175.6" style="enable-background:new 0 0 382.8 175.6;" xml:space="preserve">
<style type="text/css">
	.st0{fill:#FFFFFF;}
</style>
<g id="Calque_1_1_">
</g>
<path id="XMLID_2_" class="st0" d="M68,0.5L0.4,32.1C0.2,32.2,0,32.5,0,32.8v22c0,0.5,0.5,0.9,1,0.6l40.8-20c0.5-0.2,1,0.1,1,0.6
	v81.5c0,0.2-0.1,0.5-0.3,0.6L0.3,143.9C0.1,144,0,144.3,0,144.5v29.8c0,0.6,0.6,0.9,1.1,0.6l67.6-43.7c0.2-0.1,0.3-0.4,0.3-0.6V1.1
	C69,0.6,68.5,0.3,68,0.5z"/>
<path id="XMLID_3_" class="st0" d="M77.3,0.6l26.9,11.4c0.4,0.2,0.6,0.5,0.6,0.9v104.5c0,0.3,0.2,0.6,0.4,0.8l41.9,27.4
	c0.3,0.2,0.4,0.5,0.4,0.8v27.4c0,0.8-0.8,1.2-1.5,0.8l-69.7-43.4c-0.3-0.2-0.5-0.5-0.5-0.8V1.5C75.9,0.8,76.6,0.3,77.3,0.6z"/>
<g id="XMLID_69_">
	<path id="XMLID_70_" class="st0" d="M137.5,65.9c-0.3,1.3-0.5,2.6-0.7,3.9s-0.1,2.4,0.2,3.5c0.3,1,0.9,1.9,1.8,2.5
		c0.9,0.6,2.3,0.9,4.1,0.9c2.7,0,4.8-0.8,6.3-2.3c1.4-1.6,2.5-3.8,3.1-6.8l6.5-30.5h4l-6.5,30.6c-0.9,4.1-2.5,7.2-4.9,9.4
		c-2.4,2.2-5.6,3.2-9.7,3.2c-2.4,0-4.2-0.4-5.5-1.2s-2.2-1.9-2.7-3.2c-0.5-1.3-0.7-2.9-0.6-4.6c0.1-1.7,0.3-3.5,0.7-5.4H137.5z"/>
	<path id="XMLID_72_" class="st0" d="M172.4,37.2h4L171,62.3c-1.1,5.2-1,9,0.5,11.3c1.5,2.3,4.4,3.5,8.7,3.5c2.3,0,4.2-0.3,5.9-0.9
		s3.2-1.5,4.4-2.8c1.2-1.2,2.3-2.8,3.1-4.6c0.8-1.8,1.5-4,2-6.5l5.3-25.1h4l-5.6,26.3c-1.2,5.5-3.4,9.7-6.8,12.6
		c-3.3,2.9-7.7,4.4-13.2,4.4s-9.3-1.5-11.4-4.4c-2.1-3-2.5-7.1-1.3-12.5L172.4,37.2z"/>
	<path id="XMLID_74_" class="st0" d="M205.6,79.3l9-42.1h4l-8.3,38.7h22.6l-0.7,3.4C232.2,79.3,205.6,79.3,205.6,79.3z"/>
	<path id="XMLID_76_" class="st0" d="M239.6,79.3l9-42.1h4l-9,42.1H239.6z"/>
	<path id="XMLID_78_" class="st0" d="M254.4,79.3l9-42.1h28l-0.7,3.4h-24.1l-3.3,15.2H285l-0.7,3.4h-21.7L259,75.9h24.6l-0.7,3.4
		C282.9,79.3,254.4,79.3,254.4,79.3z"/>
	<path id="XMLID_80_" class="st0" d="M302,42.5h-0.1l-7.8,36.8h-4l9-42.1h4.5L320.1,74h0.1l7.8-36.8h4l-9,42.1h-4.6L302,42.5z"/>
</g>
<g id="XMLID_57_">
	<path id="XMLID_58_" class="st0" d="M194.2,85.6h8.8l-7.3,34.5h20.9l-1.6,7.6h-29.7L194.2,85.6z"/>
	<path id="XMLID_60_" class="st0" d="M259.5,93.1h-22.3l-1.9,8.9h20.5l-1.6,7.3h-20.5l-2.3,10.8h23.3l-1.6,7.6h-31.9l8.9-42.1H261
		L259.5,93.1z"/>
	<path id="XMLID_62_" class="st0" d="M269,85.6h8.9l-5.5,25.9c-0.6,2.9-0.7,5-0.3,6.3c0.6,2.4,2.6,3.5,6.2,3.5s6.1-1.2,7.7-3.5
		c1-1.3,1.8-3.4,2.4-6.3l5.5-25.9h8.9l-5.5,25.9c-1,4.5-2.4,8-4.3,10.5c-3.6,4.6-9,6.9-16.3,6.9s-11.8-2.3-13.4-6.9
		c-0.9-2.5-0.8-6,0.1-10.5L269,85.6z"/>
	<path id="XMLID_64_" class="st0" d="M323.4,112.6h-8.9l-3.2,15.1h-8.7l8.9-42.1h18.3c4.2,0,7.4,1.1,9.4,3.3s2.6,5.5,1.6,10.1
		c-1.1,5-3.1,8.5-6,10.5C331.9,111.6,328,112.6,323.4,112.6z M326.8,92.9h-8.2l-2.6,12.4h8.2c2.1,0,3.8-0.5,5.2-1.5
		c1.4-1,2.3-2.6,2.7-4.8c0.5-2.2,0.2-3.8-0.7-4.7C330.4,93.4,328.9,92.9,326.8,92.9z"/>
	<path id="XMLID_67_" class="st0" d="M379.8,93.1h-22.3l-1.9,8.9h20.5l-1.6,7.3H354l-2.3,10.8H375l-1.6,7.6h-31.9l8.9-42.1h30.9
		L379.8,93.1z"/>
</g>
</svg>
